<svg width="1200" height="900" viewBox="0 0 1200 900" fill="none" xmlns="http://www.w3.org/2000/svg">
  <defs>
    <linearGradient id="g" x1="0" y1="0" x2="1200" y2="900" gradientUnits="userSpaceOnUse">
      <stop stop-color="#FFEDD5"/>
      <stop offset="1" stop-color="#7C2D12"/>
    </linearGradient>
    <filter id="blur" x="-20%" y="-20%" width="140%" height="140%">
      <feGaussianBlur stdDeviation="40"/>
    </filter>
  </defs>
  <rect width="1200" height="900" fill="url(#g)"/>
  <circle cx="320" cy="270" r="190" fill="rgba(255,255,255,0.35)" filter="url(#blur)"/>
  <circle cx="900" cy="610" r="240" fill="rgba(0,0,0,0.18)" filter="url(#blur)"/>
  <g opacity="0.92">
    <path d="M540 610c0-104 84-188 188-188h70c38 0 68 30 68 68v92c0 78-64 142-142 142H630c-50 0-90-40-90-90v-24z" fill="rgba(255,255,255,0.65)"/>
    <path d="M710 438c-34 28-30 74 8 98" stroke="#1A120B" stroke-width="18" stroke-linecap="round" opacity="0.6"/>
    <path d="M610 340c-30 42 8 78 0 120" stroke="#1A120B" stroke-width="18" stroke-linecap="round" opacity="0.35"/>
    <path d="M710 320c-30 42 8 78 0 120" stroke="#1A120B" stroke-width="18" stroke-linecap="round" opacity="0.35"/>
    <path d="M810 340c-30 42 8 78 0 120" stroke="#1A120B" stroke-width="18" stroke-linecap="round" opacity="0.35"/>
  </g>
  <text x="70" y="820" font-family="ui-sans-serif, system-ui, -apple-system, Segoe UI, Roboto, Helvetica, Arial" font-size="42" fill="rgba(26,18,11,0.65)">Caff� Aurelia</text>
</svg>

